Coordinates
version=1
nRows=12
nColumns=19
inDegrees=yes

Units are S.I. units (second, meters, Newtons, ...)
If the header above contains a line with 'inDegrees', this indicates whether rotational values are in degrees (yes) or radians (no).

endheader
time	pelvis_tilt	pelvis_list	pelvis_rotation	pelvis_tx	pelvis_ty	pelvis_tz	hip_flexion_r	hip_adduction_r	hip_rotation_r	knee_angle_r	knee_angle_r_beta	ankle_angle_r	hip_flexion_l	hip_adduction_l	hip_rotation_l	knee_angle_l	knee_angle_l_beta	ankle_angle_l
     13.55333333	     -4.81800888	      4.19530651	      6.78668133	      2.18304650	      0.97410334	      1.04768117	    -24.29941959	    -10.07793112	    -32.07965687	     55.66166124	      0.97147926	    -19.98135942	     34.09341512	      6.94713786	    -13.87535454	     19.06590070	      0.33276274	     -9.51918317
     13.56000000	     -3.96732723	      5.27150846	      6.81515621	      2.18322123	      0.97220344	      1.04596383	    -24.05291111	    -12.03979449	    -31.74308164	     60.45383075	      1.05511839	    -19.54491800	     32.08964822	      7.96086338	    -15.77570889	     19.31659984	      0.33713827	     -9.36484427
     13.56666667	     -3.26967977	      6.32379088	      6.90090570	      2.18318472	      0.96956197	      1.04429905	    -23.49344293	    -13.95638804	    -31.31270230	     65.26734243	      1.13913002	    -18.87000213	     30.34147792	      8.93052741	    -17.60134275	     20.18832205	      0.35235269	     -8.61843021
     13.57333333	     -2.64996605	      7.42448764	      6.99409930	      2.18291975	      0.96639026	      1.04281685	    -22.69976727	    -15.88482868	    -30.74354726	     70.05714250	      1.22272780	    -18.00857810	     28.68276112	      9.91782546	    -19.27615286	     21.45010499	      0.37437496	     -7.37653274
     13.58000000	     -2.14146837	      8.55734258	      7.06228275	      2.18235082	      0.96274678	      1.04156575	    -21.59412045	    -17.82332353	    -29.96794849	     74.81818600	      1.30582369	    -16.92654768	     27.11285098	     10.92643892	    -20.70112390	     22.92728548	      0.40015662	     -5.65132603
     13.58666667	     -1.74172955	      9.61932648	      7.25851362	      2.18135956	      0.95867681	      1.04044376	    -20.21319496	    -19.59344552	    -29.10189441	     79.47996062	      1.38718700	    -15.69712138	     25.69541774	     11.90470303	    -21.67409560	     24.70010056	      0.43109808	     -3.44569462
     13.59333333	     -1.49585366	     10.65960420	      7.46647950	      2.17995581	      0.95428546	      1.03955828	    -18.43406092	    -21.27933366	    -27.97986994	     84.05207284	      1.46698541	    -14.33429148	     24.45178363	     12.86539928	    -22.31557704	     26.62548440	      0.46470237	     -0.88644348
     13.60000000	     -1.34872918	     11.59593071	      7.75716626	      2.17808170	      0.94987852	      1.03881994	    -16.30201041	    -22.73300248	    -26.62185506	     88.45544369	      1.54383873	    -12.98308140	     23.29639222	     13.79442729	    -22.42009760	     28.58575973	      0.49891563	      2.05101690
     13.60666667	     -1.84054682	     12.36918623	      7.92107448	      2.17579384	      0.94491387	      1.03851712	    -12.94871556	    -23.96464590	    -24.50814823	     92.82434084	      1.62009037	    -11.68252337	     22.91668079	     14.49442345	    -22.53904961	     30.67217505	      0.53533044	      4.87195733
     13.61333333	     -1.98525076	     13.04805402	      8.35985633	      2.17319212	      0.94050705	      1.03817383	    -10.01364848	    -24.91988959	    -22.71483393	     96.79666486	      1.68942051	    -10.32995745	     22.14572426	     15.17895397	    -21.98410016	     32.84719909	      0.57329177	      8.01918364
     13.62000000	     -2.75662218	     13.30922825	      8.70680113	      2.16995184	      0.93605103	      1.03814321	     -5.72684441	    -25.28094908	    -20.13326064	    100.63223906	      1.75636391	     -9.41836028	     22.10867874	     15.48122497	    -21.19504997	     34.92054755	      0.60947853	     10.83366190
     13.62666667	     -3.34118195	     13.48053831	      9.10673087	      2.16657795	      0.93215225	      1.03828705	     -1.57200598	    -25.41662523	    -17.65298147	    104.06070815	      1.81620198	     -8.51237777	     21.83194643	     15.67700399	    -20.14822447	     36.95080068	      0.64491313	     13.57446160
